<svg width="104" height="79" viewBox="0 0 104 79" fill="none" xmlns="http://www.w3.org/2000/svg">
<path d="M89.9108 78.9513C88.3317 78.9498 86.8179 78.3213 85.702 77.2041C84.5862 76.0868 83.9596 74.5722 83.96 72.9932V52.6264C83.96 52.2357 84.1151 51.8611 84.3914 51.5848C84.6676 51.3086 85.0423 51.1534 85.4329 51.1534C85.8236 51.1534 86.1983 51.3086 86.4745 51.5848C86.7507 51.8611 86.9059 52.2357 86.9059 52.6264V72.9932C86.8971 73.3933 86.9682 73.7911 87.1152 74.1633C87.2622 74.5356 87.4821 74.8747 87.7619 75.1608C88.0417 75.4469 88.3759 75.6742 88.7448 75.8294C89.1137 75.9846 89.5098 76.0646 89.91 76.0646C90.3102 76.0646 90.7064 75.9846 91.0753 75.8294C91.4442 75.6742 91.7784 75.4469 92.0582 75.1608C92.338 74.8747 92.5579 74.5356 92.7049 74.1633C92.8519 73.7911 92.923 73.3933 92.9142 72.9932V37.5446C92.9142 37.1539 93.0694 36.7793 93.3456 36.503C93.6218 36.2268 93.9965 36.0716 94.3872 36.0716C94.7778 36.0716 95.1525 36.2268 95.4287 36.503C95.7049 36.7793 95.8601 37.1539 95.8601 37.5446V72.9932C95.8605 74.572 95.2341 76.0863 94.1186 77.2035C93.003 78.3207 91.4896 78.9494 89.9108 78.9513V78.9513Z" fill="#1A76DC"/>
<path d="M98.0107 53.8209C96.6593 53.8198 95.3635 53.2825 94.4077 52.327C93.452 51.3715 92.9143 50.0759 92.9128 48.7245V37.5446C92.9128 37.1539 93.0679 36.7793 93.3442 36.503C93.6204 36.2268 93.9951 36.0716 94.3857 36.0716C94.7764 36.0716 95.151 36.2268 95.4273 36.503C95.7035 36.7793 95.8587 37.1539 95.8587 37.5446V48.7245C95.8734 49.2853 96.1065 49.8182 96.5083 50.2096C96.9102 50.6011 97.449 50.8202 98.01 50.8202C98.571 50.8202 99.1098 50.6011 99.5116 50.2096C99.9135 49.8182 100.147 49.2853 100.161 48.7245V30.6879C100.159 29.1341 99.5412 27.6445 98.4425 26.5457C97.3437 25.447 95.8541 24.8289 94.3003 24.827H76.5628C75.0089 24.8289 73.5193 25.447 72.4206 26.5457C71.3219 27.6445 70.7038 29.1341 70.7018 30.6879V48.7245C70.7165 49.2853 70.9496 49.8182 71.3514 50.2096C71.7533 50.6011 72.2921 50.8202 72.8531 50.8202C73.4141 50.8202 73.9529 50.6011 74.3547 50.2096C74.7566 49.8182 74.9897 49.2853 75.0044 48.7245V37.5446C75.0044 37.1539 75.1595 36.7793 75.4358 36.503C75.712 36.2268 76.0867 36.0716 76.4773 36.0716C76.868 36.0716 77.2426 36.2268 77.5189 36.503C77.7951 36.7793 77.9503 37.1539 77.9503 37.5446V48.7245C77.9276 50.0613 77.3806 51.3357 76.4271 52.2731C75.4737 53.2105 74.1901 53.7358 72.8531 53.7358C71.516 53.7358 70.2325 53.2105 69.279 52.2731C68.3256 51.3357 67.7786 50.0613 67.7559 48.7245V30.6879C67.7586 28.353 68.6873 26.1145 70.3384 24.4635C71.9894 22.8125 74.2279 21.8837 76.5628 21.881H94.3003C96.6352 21.8837 98.8737 22.8125 100.525 24.4635C102.176 26.1145 103.104 28.353 103.107 30.6879V48.7245C103.106 50.0757 102.568 51.3711 101.613 52.3265C100.657 53.2819 99.3619 53.8194 98.0107 53.8209V53.8209Z" fill="#1A76DC"/>
<path d="M80.9542 78.9513C79.3767 78.9494 77.8644 78.3218 76.749 77.2061C75.6337 76.0905 75.0064 74.578 75.0049 73.0005V37.5446C75.0049 37.1539 75.1601 36.7793 75.4363 36.503C75.7125 36.2268 76.0872 36.0716 76.4779 36.0716C76.8685 36.0716 77.2432 36.2268 77.5194 36.503C77.7956 36.7793 77.9508 37.1539 77.9508 37.5446V72.9932C77.942 73.3933 78.0131 73.7911 78.1601 74.1633C78.3071 74.5356 78.527 74.8747 78.8068 75.1608C79.0866 75.4469 79.4208 75.6742 79.7897 75.8294C80.1586 75.9846 80.5547 76.0646 80.9549 76.0646C81.3551 76.0646 81.7513 75.9846 82.1202 75.8294C82.4891 75.6742 82.8233 75.4469 83.1031 75.1608C83.3829 74.8747 83.6028 74.5356 83.7498 74.1633C83.8968 73.7911 83.9679 73.3933 83.9591 72.9932V52.6264C83.9591 52.2357 84.1143 51.8611 84.3905 51.5848C84.6667 51.3086 85.0414 51.1534 85.432 51.1534C85.8227 51.1534 86.1973 51.3086 86.4736 51.5848C86.7498 51.8611 86.905 52.2357 86.905 52.6264V72.9932C86.9054 74.5722 86.2788 76.0868 85.1629 77.2041C84.0471 78.3213 82.5333 78.9498 80.9542 78.9513V78.9513Z" fill="#1A76DC"/>
<path d="M85.4321 18.5595C83.5967 18.5595 81.8026 18.0152 80.2765 16.9955C78.7505 15.9759 77.5611 14.5266 76.8587 12.8309C76.1564 11.1353 75.9726 9.26944 76.3307 7.46935C76.6887 5.66926 77.5725 4.01577 78.8703 2.71797C80.1681 1.42018 81.8216 0.536372 83.6217 0.178312C85.4218 -0.179749 87.2876 0.00402075 88.9833 0.706381C90.6789 1.40874 92.1282 2.59815 93.1479 4.12419C94.1676 5.65023 94.7118 7.44437 94.7118 9.27973C94.7095 11.7401 93.7311 14.0991 91.9913 15.8389C90.2515 17.5787 87.8925 18.5571 85.4321 18.5595V18.5595ZM85.4321 2.94595C84.1794 2.94595 82.9548 3.31742 81.9132 4.01338C80.8716 4.70935 80.0598 5.69855 79.5804 6.8559C79.101 8.01324 78.9756 9.28676 79.22 10.5154C79.4644 11.744 80.0676 12.8726 80.9534 13.7584C81.8392 14.6442 82.9678 15.2474 84.1964 15.4918C85.4251 15.7362 86.6986 15.6108 87.8559 15.1314C89.0133 14.652 90.0025 13.8402 90.6984 12.7986C91.3944 11.757 91.7659 10.5324 91.7659 9.27973C91.7639 7.60118 91.0958 5.99205 89.9081 4.80583C88.7205 3.61961 87.1106 2.95331 85.4321 2.95331V2.94595Z" fill="#1A76DC"/>
<path d="M13.1974 78.9513C11.6199 78.9494 10.1075 78.3218 8.9922 77.2061C7.87686 76.0905 7.24961 74.578 7.24805 73.0005V37.5446C7.24805 37.1539 7.40323 36.7793 7.67947 36.503C7.95571 36.2268 8.33036 36.0716 8.72102 36.0716C9.11168 36.0716 9.48633 36.2268 9.76257 36.503C10.0388 36.7793 10.194 37.1539 10.194 37.5446V72.9932C10.1851 73.3933 10.2563 73.7911 10.4033 74.1633C10.5503 74.5356 10.7701 74.8747 11.05 75.1608C11.3298 75.4469 11.664 75.6742 12.0329 75.8294C12.4017 75.9846 12.7979 76.0646 13.1981 76.0646C13.5983 76.0646 13.9945 75.9846 14.3634 75.8294C14.7323 75.6742 15.0664 75.4469 15.3463 75.1608C15.6261 74.8747 15.846 74.5356 15.993 74.1633C16.14 73.7911 16.2111 73.3933 16.2023 72.9932V52.6264C16.2023 52.2357 16.3574 51.8611 16.6337 51.5848C16.9099 51.3086 17.2846 51.1534 17.6752 51.1534C18.0659 51.1534 18.4405 51.3086 18.7168 51.5848C18.993 51.8611 19.1482 52.2357 19.1482 52.6264V72.9932C19.1486 74.5722 18.522 76.0868 17.4061 77.2041C16.2903 78.3213 14.7764 78.9498 13.1974 78.9513V78.9513Z" fill="#1A76DC"/>
<path d="M30.2549 53.8209C28.9034 53.8198 27.6076 53.2825 26.6519 52.327C25.6961 51.3715 25.1585 50.0759 25.1569 48.7245V37.5446C25.1569 37.1539 25.3121 36.7793 25.5883 36.503C25.8646 36.2268 26.2392 36.0716 26.6299 36.0716C27.0205 36.0716 27.3952 36.2268 27.6714 36.503C27.9477 36.7793 28.1029 37.1539 28.1029 37.5446V48.7245C28.1175 49.2853 28.3506 49.8182 28.7525 50.2096C29.1543 50.6011 29.6931 50.8202 30.2541 50.8202C30.8151 50.8202 31.354 50.6011 31.7558 50.2096C32.1576 49.8182 32.3907 49.2853 32.4054 48.7245V30.6879C32.4035 29.1341 31.7853 27.6445 30.6866 26.5457C29.5879 25.447 28.0983 24.8289 26.5445 24.827H8.80691C7.25308 24.8289 5.76346 25.447 4.66473 26.5457C3.56601 27.6445 2.9479 29.1341 2.94595 30.6879V48.7245C2.96062 49.2853 3.19371 49.8182 3.59556 50.2096C3.9974 50.6011 4.53622 50.8202 5.09722 50.8202C5.65822 50.8202 6.19705 50.6011 6.59889 50.2096C7.00074 49.8182 7.23383 49.2853 7.2485 48.7245V37.5446C7.2485 37.1539 7.40369 36.7793 7.67993 36.503C7.95616 36.2268 8.33082 36.0716 8.72148 36.0716C9.11213 36.0716 9.48679 36.2268 9.76303 36.503C10.0393 36.7793 10.1944 37.1539 10.1944 37.5446V48.7245C10.1717 50.0613 9.6247 51.3357 8.67126 52.2731C7.71782 53.2105 6.43428 53.7358 5.09722 53.7358C3.76017 53.7358 2.47663 53.2105 1.52319 52.2731C0.569747 51.3357 0.0227265 50.0613 0 48.7245V30.6879C0.00272883 28.353 0.931473 26.1145 2.5825 24.4635C4.23352 22.8125 6.47201 21.8837 8.80691 21.881H26.5445C28.8794 21.8837 31.1178 22.8125 32.7689 24.4635C34.4199 26.1145 35.3486 28.353 35.3514 30.6879V48.7245C35.3498 50.0757 34.8124 51.3711 33.8569 52.3265C32.9015 53.2819 31.6061 53.8194 30.2549 53.8209Z" fill="#1A76DC"/>
<path d="M22.153 78.9513C20.5739 78.9498 19.0601 78.3213 17.9442 77.2041C16.8284 76.0868 16.2018 74.5722 16.2021 72.9932V52.6264C16.2021 52.2357 16.3573 51.8611 16.6336 51.5848C16.9098 51.3086 17.2845 51.1534 17.6751 51.1534C18.0658 51.1534 18.4404 51.3086 18.7167 51.5848C18.9929 51.8611 19.1481 52.2357 19.1481 52.6264V72.9932C19.1392 73.3933 19.2104 73.7911 19.3574 74.1633C19.5044 74.5356 19.7242 74.8747 20.0041 75.1608C20.2839 75.4469 20.6181 75.6742 20.987 75.8294C21.3558 75.9846 21.752 76.0646 22.1522 76.0646C22.5524 76.0646 22.9486 75.9846 23.3175 75.8294C23.6864 75.6742 24.0205 75.4469 24.3004 75.1608C24.5802 74.8747 24.8001 74.5356 24.9471 74.1633C25.0941 73.7911 25.1652 73.3933 25.1564 72.9932V37.5446C25.1564 37.1539 25.3115 36.7793 25.5878 36.503C25.864 36.2268 26.2387 36.0716 26.6293 36.0716C27.02 36.0716 27.3946 36.2268 27.6709 36.503C27.9471 36.7793 28.1023 37.1539 28.1023 37.5446V72.9932C28.1027 74.572 27.4763 76.0863 26.3607 77.2035C25.2452 78.3207 23.7318 78.9494 22.153 78.9513V78.9513Z" fill="#1A76DC"/>
<path d="M17.6752 18.5595C15.8399 18.5595 14.0457 18.0152 12.5197 16.9955C10.9937 15.9759 9.80425 14.5266 9.10189 12.8309C8.39953 11.1353 8.21576 9.26944 8.57382 7.46935C8.93188 5.66926 9.81569 4.01577 11.1135 2.71797C12.4113 1.42018 14.0648 0.536372 15.8649 0.178312C17.6649 -0.179749 19.5308 0.00402075 21.2264 0.706381C22.9221 1.40874 24.3714 2.59815 25.391 4.12419C26.4107 5.65023 26.955 7.44437 26.955 9.27973C26.9526 11.7401 25.9742 14.0991 24.2344 15.8389C22.4946 17.5787 20.1357 18.5571 17.6752 18.5595V18.5595ZM17.6752 2.94595C16.4225 2.94595 15.198 3.31742 14.1564 4.01338C13.1148 4.70935 12.303 5.69855 11.8236 6.8559C11.3442 8.01324 11.2188 9.28676 11.4632 10.5154C11.7075 11.744 12.3108 12.8726 13.1966 13.7584C14.0824 14.6442 15.2109 15.2474 16.4396 15.4918C17.6682 15.7362 18.9417 15.6108 20.0991 15.1314C21.2564 14.652 22.2456 13.8402 22.9416 12.7986C23.6375 11.757 24.009 10.5324 24.009 9.27973C24.0071 7.60118 23.3389 5.99205 22.1513 4.80583C20.9637 3.61961 19.3538 2.95331 17.6752 2.95331V2.94595Z" fill="#1A76DC"/>
<path d="M68.493 7.07027H34.6146C34.2239 7.07027 33.8493 6.91509 33.573 6.63885C33.2968 6.36261 33.1416 5.98796 33.1416 5.5973C33.1416 5.20664 33.2968 4.83199 33.573 4.55575C33.8493 4.27952 34.2239 4.12433 34.6146 4.12433H68.493C68.8836 4.12433 69.2583 4.27952 69.5345 4.55575C69.8108 4.83199 69.9659 5.20664 69.9659 5.5973C69.9659 5.98796 69.8108 6.36261 69.5345 6.63885C69.2583 6.91509 68.8836 7.07027 68.493 7.07027Z" fill="#1A76DC"/>
<path d="M65.0404 11.1209C64.7593 11.1198 64.4845 11.0383 64.2482 10.886C64.0119 10.7338 63.8242 10.5171 63.7071 10.2615C63.59 10.006 63.5485 9.72229 63.5874 9.44392C63.6264 9.16555 63.7442 8.90414 63.9269 8.69053L66.5576 5.59729L63.9269 2.50405C63.6729 2.20676 63.5475 1.82077 63.5782 1.43101C63.6088 1.04124 63.7931 0.679613 64.0904 0.425686C64.3877 0.171759 64.7736 0.0463304 65.1634 0.0769926C65.5532 0.107655 65.9148 0.291896 66.1687 0.589186L69.6214 4.63986C69.8496 4.90666 69.975 5.2462 69.975 5.59729C69.975 5.94838 69.8496 6.28792 69.6214 6.55472L66.1614 10.6054C66.0233 10.7677 65.8515 10.898 65.6578 10.987C65.4642 11.0761 65.2535 11.1218 65.0404 11.1209V11.1209Z" fill="#1A76DC"/>
<path d="M38.0678 11.121C37.8545 11.1214 37.6436 11.0753 37.45 10.9857C37.2564 10.8961 37.0847 10.7653 36.9469 10.6025L33.4942 6.5518C33.266 6.28499 33.1406 5.94545 33.1406 5.59436C33.1406 5.24328 33.266 4.90373 33.4942 4.63693L36.9469 0.586252C37.0726 0.439049 37.2261 0.318053 37.3986 0.230171C37.5711 0.142289 37.7592 0.089242 37.9522 0.0740596C38.1452 0.0588772 38.3393 0.0818561 38.5234 0.141685C38.7075 0.201514 38.878 0.297021 39.0252 0.422753C39.1724 0.548485 39.2934 0.701979 39.3813 0.874472C39.4692 1.04697 39.5223 1.23508 39.5374 1.42807C39.5526 1.62107 39.5296 1.81516 39.4698 1.99928C39.41 2.18339 39.3145 2.35392 39.1887 2.50112L36.5506 5.59731L39.1887 8.69055C39.3709 8.9047 39.488 9.16652 39.5262 9.44507C39.5644 9.72363 39.522 10.0073 39.4041 10.2626C39.2863 10.5178 39.0978 10.734 38.861 10.8856C38.6242 11.0372 38.349 11.1178 38.0678 11.118V11.121Z" fill="#1A76DC"/>
</svg>
