<svg width="92" height="92" viewBox="0 0 92 92" fill="none" xmlns="http://www.w3.org/2000/svg">
<g clip-path="url(#clip0)">
<path d="M91.4478 48.1856C90.8961 47.2569 89.9752 46.5878 88.9215 46.3504C86.9466 45.9047 84.9476 46.0634 83.1435 46.7382L79.6892 32.9465C79.5059 32.2143 78.7636 31.7698 78.0315 31.9529C77.2994 32.1364 76.8546 32.8783 77.0379 33.6106L80.664 48.0885C79.8018 48.7293 79.0313 49.5139 78.391 50.4306L72.8081 58.4233L70.9143 58.7089C67.5591 59.2149 64.7527 61.5094 63.5902 64.6971L63.2335 65.6754C62.9749 66.3846 63.3401 67.1688 64.0492 67.4273C64.7582 67.6864 65.5426 67.3209 65.8011 66.6116L66.1579 65.6333C66.9777 63.3858 68.9563 61.768 71.3219 61.4112L73.7961 61.038C74.1667 60.9821 74.4979 60.7764 74.7126 60.4694L80.6314 51.9954C82.3593 49.5219 85.377 48.3527 88.3202 49.0163C88.6493 49.0905 88.9255 49.2913 89.0979 49.5813C89.2703 49.8714 89.3144 50.2099 89.222 50.5345L85.0208 65.3123C84.1683 68.3111 81.9273 70.7831 79.0262 71.925L77.1507 72.6633C75.8705 73.1673 75.0856 74.4739 75.2419 75.8408L76.8307 89.7278C76.9106 90.4249 77.5015 90.9391 78.1867 90.9391C78.2385 90.9391 78.291 90.936 78.3438 90.93C79.0936 90.8442 79.632 90.1669 79.5462 89.4169L77.9573 75.53C77.9415 75.3906 78.0215 75.2576 78.1519 75.2062L80.0274 74.4679C83.7164 73.016 86.5659 69.8728 87.6501 66.0595L91.8513 51.2817C92.1466 50.2429 91.9996 49.1145 91.4478 48.1856V48.1856Z" fill="#1A76DC"/>
<path d="M64.0045 49.8749L61.1635 21.8256C61.1621 21.8114 61.1604 21.797 61.1584 21.7828C60.9811 20.4536 61.871 19.2001 63.1844 18.9294C63.8615 18.7894 64.5504 18.9237 65.1255 19.3062C65.7005 19.689 66.0902 20.2732 66.2205 20.9399L70.1965 49.2366C70.2849 49.9263 70.8728 50.4295 71.5503 50.4295C71.6081 50.4295 71.6669 50.4257 71.7258 50.4182C72.4745 50.3222 73.0034 49.6375 72.9074 48.8888L70.0369 26.499C70.0338 26.4746 70.03 26.4504 70.0256 26.4263C69.8926 25.7012 70.0699 24.982 70.5248 24.4018C70.98 23.8213 71.6359 23.4777 72.3722 23.4338C73.4808 23.3722 74.5112 24.0405 74.9002 25.0756L75.6095 27.9077C75.7928 28.64 76.5353 29.0855 77.2673 28.9013C77.9994 28.7178 78.4441 27.9758 78.2608 27.2435L77.5347 24.3441C77.5245 24.3034 77.5125 24.2635 77.4987 24.224C76.7234 22.0129 74.5482 20.5674 72.2097 20.7055C71.0906 20.7722 70.0318 21.1942 69.1792 21.8935L68.9054 20.427C68.6319 19.027 67.8272 17.821 66.6398 17.031C65.4523 16.2407 64.0286 15.9645 62.6323 16.2526C59.9285 16.8105 58.0939 19.3853 58.4464 22.1211L58.557 23.2131C58.0057 23.0449 57.4202 22.9748 56.8266 23.0205C54.6046 23.1896 52.8515 24.8659 52.5179 26.985C51.7618 26.577 50.8941 26.3456 49.9687 26.3456C48.3946 26.3456 46.9779 27.0315 46.0005 28.1194C45.0232 27.0315 43.6067 26.3456 42.0324 26.3456C41.1064 26.3456 40.2386 26.5772 39.482 26.9861C39.1462 24.8628 37.3943 23.1896 35.1743 23.0205C34.5834 22.9755 33.9976 23.0444 33.444 23.2129L33.5546 22.1213C33.9072 19.3855 32.0727 16.8107 29.3689 16.2527C27.9721 15.9649 26.5487 16.2411 25.3613 17.0311C24.1738 17.8212 23.3694 19.0272 23.0937 20.4382L22.822 21.8935C21.9695 21.1944 20.9106 20.7724 19.7917 20.7057C17.4532 20.5636 15.2779 22.0129 14.5026 24.2242C14.4887 24.2637 14.4767 24.3038 14.4665 24.3442L11.4553 36.3667C11.272 37.099 11.7168 37.841 12.4489 38.0244C13.1814 38.2086 13.9233 37.763 14.1066 37.0309L17.1007 25.0754C17.4897 24.04 18.521 23.3696 19.6288 23.4334C20.3651 23.4773 21.0211 23.8211 21.4762 24.4015C21.9312 24.9818 22.1085 25.7008 21.9755 26.426C21.9711 26.4502 19.0937 48.8884 19.0937 48.8884C18.9976 49.6369 19.5266 50.3217 20.2753 50.4179C20.3343 50.4253 20.3928 50.4292 20.4507 50.4292C21.128 50.4292 21.7162 49.9257 21.8046 49.2363L25.7783 20.9508C25.9108 20.2728 26.3005 19.6886 26.8756 19.306C27.4506 18.9232 28.1399 18.7891 28.8168 18.9292C30.13 19.2 31.0199 20.4534 30.8426 21.7826C30.8406 21.7968 30.839 21.8112 30.8375 21.8254L27.9965 49.8747C27.9206 50.6256 28.4675 51.2959 29.2184 51.3721C29.2652 51.3768 29.3117 51.3792 29.3578 51.3792C30.0506 51.379 30.6446 50.8543 30.7158 50.1502L33.0858 26.751C33.1435 26.649 33.2073 26.5504 33.2826 26.46C33.6951 25.9639 34.325 25.696 34.9673 25.7454C36.029 25.8261 36.8373 26.723 36.807 27.7978L36.303 52.4786C36.2877 53.2334 36.8868 53.8574 37.6414 53.8727C37.651 53.8729 37.6603 53.8731 37.6698 53.8731C38.4116 53.8731 39.0203 53.2795 39.0356 52.5344L39.4704 31.2423C39.6774 30.0036 40.7385 29.0784 42.0326 29.0784C43.4671 29.0784 44.6341 30.2454 44.6341 31.6798V48.3055C44.5008 48.3975 44.3761 48.5034 44.263 48.6218C42.1747 50.81 39.6854 53.915 39.6854 56.281C39.6854 59.294 41.8068 61.8192 44.634 62.4456V65.7738C44.634 68.103 43.8372 70.3912 42.3903 72.2167L37.602 78.258C37.4107 78.4994 37.3065 78.7986 37.3065 79.1067V89.5726C37.3065 90.3275 37.9183 90.9391 38.673 90.9391C39.4277 90.9391 40.0396 90.3275 40.0396 89.5726V79.5825L44.5323 73.9142C45.1039 73.193 45.5951 72.4146 46.0005 71.5952C46.4059 72.4146 46.8972 73.193 47.4688 73.9142L51.9615 79.5825V89.5726C51.9615 90.3275 52.5733 90.9391 53.328 90.9391C54.0827 90.9391 54.6946 90.3275 54.6946 89.5726V79.1067C54.6946 78.7986 54.5904 78.4994 54.399 78.258L49.6108 72.2167C48.1639 70.391 47.3671 68.103 47.3671 65.7738V62.4456C50.1942 61.8192 52.3157 59.294 52.3157 56.281C52.3157 53.915 49.8263 50.81 47.7382 48.622C47.6251 48.5034 47.5005 48.3977 47.3669 48.3055V31.6798C47.3669 30.2454 48.5339 29.0784 49.9685 29.0784C51.2623 29.0784 52.3233 30.0035 52.5303 31.2292L52.9653 52.5346C52.9804 53.2796 53.5891 53.8733 54.3311 53.8733C54.3406 53.8733 54.35 53.8731 54.3595 53.8729C55.114 53.8576 55.7133 53.2334 55.6978 52.4788L55.1937 27.7874C55.1638 26.7232 55.9719 25.8263 57.0338 25.7456C57.7998 25.6873 58.5343 26.0789 58.9143 26.7441L61.2851 50.1504C61.3565 50.8544 61.9501 51.3794 62.643 51.3794C62.689 51.3794 62.7356 51.377 62.7824 51.3723C63.5335 51.2961 64.0805 50.6258 64.0045 49.8749ZM49.5824 56.2811C49.5824 58.2556 47.9764 59.8621 46.002 59.8632C46.0014 59.8632 46.0009 59.8632 46.0002 59.8632C45.9994 59.8632 45.9991 59.8632 45.9983 59.8632C44.0239 59.8623 42.4179 58.2557 42.4179 56.2811C42.4179 55.4891 43.362 53.5792 46 50.7622C48.6383 53.579 49.5824 55.4891 49.5824 56.2811Z" fill="#1A76DC"/>
<path d="M28.4105 64.6972C27.2481 61.5094 24.4417 59.2149 21.0865 58.7089L19.1926 58.4234L13.6098 50.4306C12.9695 49.514 12.1988 48.7292 11.3367 48.0885L12.6911 42.6808C12.8744 41.9485 12.4296 41.2065 11.6975 41.0231C10.9659 40.8403 10.2233 41.2847 10.0398 42.0166L8.85706 46.7387C7.05283 46.0642 5.05401 45.9055 3.07905 46.3506C2.02534 46.5882 1.10446 47.2573 0.552735 48.1858C0.00100894 49.1147 -0.146033 50.2432 0.149326 51.2823L4.3505 66.0601C5.43464 69.8735 8.28419 73.0168 11.973 74.4685L13.8485 75.2068C13.9789 75.2581 14.0589 75.3913 14.0431 75.5305L12.4542 89.4175C12.3684 90.1673 12.9066 90.8448 13.6566 90.9306C13.7094 90.9366 13.7617 90.9397 13.8137 90.9397C14.4989 90.9397 15.0899 90.4255 15.1697 89.7284L16.7585 75.8414C16.9148 74.4743 16.1299 73.1677 14.8497 72.6639L12.9741 71.9256C10.0731 70.7837 7.83195 68.3116 6.97958 65.3129L2.77841 50.535C2.68621 50.2105 2.73012 49.8718 2.90249 49.5819C3.07486 49.292 3.35109 49.0912 3.68034 49.0169C6.62337 48.3531 9.64146 49.5222 11.3692 51.996L17.288 60.4699C17.5027 60.7771 17.8339 60.9827 18.2045 61.0386L20.6787 61.4118C23.0443 61.7685 25.0231 63.3864 25.8427 65.6339L26.1994 66.6122C26.458 67.3215 27.2426 67.6869 27.9514 67.4279C28.6605 67.1694 29.0257 66.385 28.7671 65.676L28.4105 64.6972Z" fill="#1A76DC"/>
<path d="M46.0004 20.619C50.7172 20.619 54.5547 16.7815 54.5547 12.0649C54.5547 11.8768 54.5414 11.6815 54.513 11.4507C54.4206 10.7014 53.7384 10.1677 52.9894 10.2618C52.2403 10.3541 51.7081 11.0363 51.8005 11.7852C51.8147 11.9011 51.8216 11.9925 51.8216 12.0649C51.8216 15.2747 49.2102 17.8859 46.0004 17.8859C42.7906 17.8859 40.1792 15.2747 40.1792 12.0649C40.1792 10.3146 42.4062 7.17697 46.0004 3.85714C46.7672 4.56629 48.1255 5.88147 49.3345 7.35316C49.8135 7.93641 50.6746 8.02078 51.2579 7.54157C51.8411 7.06254 51.9255 6.20143 51.4464 5.61818C50.1406 4.02859 48.7099 2.63361 47.7398 1.74334C46.748 0.832664 45.2526 0.832482 44.2614 1.74316C41.7162 4.0787 37.4463 8.52567 37.4463 12.0647C37.4461 16.7817 41.2836 20.619 46.0004 20.619V20.619Z" fill="#1A76DC"/>
</g>
<defs>
<clipPath id="clip0">
<rect width="92" height="92" fill="white"/>
</clipPath>
</defs>
</svg>
